<?xml version="1.0" standalone="no"?>
<!DOCTYPE svg PUBLIC "-//W3C//DTD SVG 20010904//EN"
 "http://www.w3.org/TR/2001/REC-SVG-20010904/DTD/svg10.dtd">
<svg version="1.0" xmlns="http://www.w3.org/2000/svg"
 width="232.000000pt" height="232.000000pt" viewBox="0 0 232.000000 232.000000"
 preserveAspectRatio="xMidYMid meet">
<metadata>
Created by potrace 1.11, written by Peter Selinger 2001-2013
</metadata>
<g transform="translate(0.000000,232.000000) scale(0.100000,-0.100000)"
fill="#000000" stroke="none">
<path d="M1001 2135 c-46 -19 -106 -52 -135 -73 -58 -44 -128 -129 -151 -185
-26 -63 -16 -63 15 0 35 71 121 160 183 191 39 20 56 22 132 18 48 -3 90 -8
93 -11 3 -3 20 -5 39 -5 18 0 33 -4 33 -9 0 -8 52 -31 71 -31 4 0 14 12 21 28
12 23 19 27 53 24 80 -7 157 -64 231 -173 53 -77 51 -64 43 -279 -2 -47 1
-107 5 -135 14 -90 27 -24 29 153 2 161 1 169 -24 222 -85 180 -276 300 -474
300 -68 0 -92 -6 -164 -35z"/>
<path d="M685 1715 c3 -38 11 -115 19 -170 l15 -100 -4 100 c-2 55 -11 132
-19 170 l-15 70 4 -70z"/>
<path d="M1210 1528 c-36 -4 -131 -9 -212 -11 -126 -2 -150 -5 -165 -20 -17
-17 -17 -18 5 -23 28 -8 28 -17 -3 -48 -14 -14 -25 -34 -25 -46 0 -18 4 -20
35 -14 23 4 41 2 50 -6 14 -11 14 -15 -2 -32 -15 -17 -15 -21 -3 -28 23 -15
78 -12 111 6 42 21 109 83 109 100 0 8 11 19 24 26 35 15 90 -12 111 -56 12
-25 33 -42 78 -64 34 -17 74 -34 89 -38 46 -10 110 48 74 68 -8 5 -13 15 -10
23 4 10 12 12 31 4 57 -22 68 -1 31 59 -20 32 -20 35 -4 44 21 12 8 31 -35 53
-30 16 -181 18 -289 3z"/>
<path d="M1685 1460 c-8 -24 1 -71 21 -108 13 -26 14 -25 14 28 0 87 -19 130
-35 80z"/>
<path d="M1650 1300 c0 -54 5 -60 26 -32 17 21 18 54 2 70 -22 22 -28 13 -28
-38z"/>
<path d="M712 1285 c0 -16 2 -22 5 -12 2 9 2 23 0 30 -3 6 -5 -1 -5 -18z"/>
<path d="M1308 1205 c-3 -3 0 -26 5 -51 12 -50 0 -69 -35 -58 -10 3 -23 2 -29
-2 -6 -4 -31 -8 -55 -10 -24 -1 -48 -6 -54 -9 -6 -4 -17 -2 -25 5 -8 6 -22 11
-32 10 -42 -5 -45 -1 -42 53 2 49 1 52 -20 49 -31 -3 -160 -118 -167 -149 -9
-36 9 -50 40 -30 29 19 42 7 26 -22 -7 -15 -6 -30 4 -58 8 -21 17 -46 20 -56
5 -15 10 -13 37 18 30 34 34 35 78 29 28 -3 53 -14 64 -26 17 -20 17 -22 0
-40 -35 -39 16 -75 112 -79 l60 -3 3 38 c2 20 -2 44 -8 51 -7 8 -8 20 -4 26 4
8 3 9 -4 5 -16 -9 -15 7 0 22 15 15 59 15 91 1 25 -11 33 -23 58 -86 9 -20 16
-28 21 -20 5 8 14 4 29 -13 15 -17 20 -19 16 -8 -4 12 0 21 13 28 21 11 35 44
25 60 -4 7 -13 6 -27 -1 -15 -8 -19 -8 -13 0 4 7 2 18 -5 26 -20 25 -8 68 25
85 35 18 43 27 51 58 9 31 -25 62 -86 82 -25 8 -63 26 -85 41 -43 29 -78 42
-87 34z m-188 -232 c0 -14 -89 -19 -91 -5 0 4 -2 16 -4 27 -2 11 3 31 11 43
l16 24 34 -39 c19 -21 34 -44 34 -50z"/>
<path d="M1635 1090 c3 -5 10 -10 16 -10 5 0 9 5 9 10 0 6 -7 10 -16 10 -8 0
-12 -4 -9 -10z"/>
<path d="M860 850 c0 -5 5 -10 11 -10 5 0 7 5 4 10 -3 6 -8 10 -11 10 -2 0 -4
-4 -4 -10z"/>
<path d="M573 779 c-38 -11 -51 -27 -29 -35 20 -8 20 -22 1 -87 -13 -44 -24
-59 -70 -94 -30 -24 -55 -50 -55 -58 0 -8 -5 -15 -11 -15 -5 0 -16 -15 -24
-33 -11 -28 -28 -39 -109 -76 -53 -24 -94 -46 -92 -50 2 -3 -6 -7 -18 -7 -21
-2 -127 -64 -153 -90 -9 -9 -13 -48 -13 -123 l0 -111 93 0 c91 0 94 1 115 29
11 16 36 39 54 51 26 17 22 12 -15 -24 -26 -25 -47 -48 -47 -51 0 -3 477 -5
1060 -5 l1061 0 -3 87 -3 86 -45 24 c-25 13 -74 41 -110 62 -36 21 -99 56
-140 79 -107 60 -104 56 -92 79 8 15 7 25 -4 42 -19 27 -63 158 -64 189 0 40
-28 79 -74 106 -37 22 -63 28 -139 33 -71 4 -96 3 -102 -7 -11 -17 -7 -113 6
-166 10 -38 15 -43 54 -53 23 -6 47 -16 52 -23 15 -20 23 -48 14 -48 -5 0 -12
11 -15 24 -3 13 -16 26 -28 30 -48 12 -52 6 -18 -29 l33 -34 -24 -9 c-63 -24
-141 -36 -160 -24 -10 7 -27 12 -37 12 -17 0 -25 20 -24 65 1 42 13 76 53 156
4 9 15 33 23 52 12 31 12 35 0 30 -8 -3 -14 -10 -14 -15 0 -15 -40 -47 -88
-69 -31 -15 -61 -20 -115 -19 -39 1 -104 -1 -143 -5 -54 -6 -73 -4 -85 6 -35
34 -100 81 -106 76 -5 -6 47 -117 66 -141 27 -34 37 -184 14 -208 -10 -9 -13
-9 -13 0 0 7 -7 12 -16 12 -9 0 -12 -5 -8 -12 5 -8 2 -9 -10 -5 -10 4 -30 10
-44 14 -15 3 -38 14 -51 25 -13 10 -30 18 -37 18 -16 0 -56 21 -65 34 -11 14
20 99 51 143 25 34 30 51 30 96 l0 54 -88 12 c-102 13 -135 13 -179 0z m177
-349 c0 -5 -7 -10 -15 -10 -8 0 -15 5 -15 10 0 6 7 10 15 10 8 0 15 -4 15 -10z"/>
</g>
</svg>
